<mxfile host="Electron" modified="2024-12-21T02:50:52.467Z" agent="Mozilla/5.0 (X11; Linux x86_64) AppleWebKit/537.36 (KHTML, like Gecko) draw.io/24.6.1 Chrome/124.0.6367.207 Electron/30.0.6 Safari/537.36" etag="LHVXYP0am3BAfusoA5YG" version="24.6.1" type="device">
  <diagram id="C5RBs43oDa-KdzZeNtuy" name="Page-1">
    <mxGraphModel dx="1698" dy="2108" grid="1" gridSize="10" guides="1" tooltips="1" connect="1" arrows="1" fold="1" page="1" pageScale="1" pageWidth="2339" pageHeight="3300" math="0" shadow="0">
      <root>
        <mxCell id="WIyWlLk6GJQsqaUBKTNV-0" />
        <mxCell id="WIyWlLk6GJQsqaUBKTNV-1" parent="WIyWlLk6GJQsqaUBKTNV-0" />
        <mxCell id="BolMKsSZyWMuAINEgr_R-33" value="Начало" style="rounded=1;whiteSpace=wrap;html=1;fontSize=12;glass=0;strokeWidth=1;shadow=0;" vertex="1" parent="WIyWlLk6GJQsqaUBKTNV-1">
          <mxGeometry x="370" y="100" width="220" height="80" as="geometry" />
        </mxCell>
        <mxCell id="BolMKsSZyWMuAINEgr_R-35" value="&lt;div&gt;comparisons = 0&lt;/div&gt;" style="rounded=0;whiteSpace=wrap;html=1;" vertex="1" parent="WIyWlLk6GJQsqaUBKTNV-1">
          <mxGeometry x="370" y="210" width="220" height="80" as="geometry" />
        </mxCell>
        <mxCell id="BolMKsSZyWMuAINEgr_R-37" value="" style="endArrow=none;dashed=1;html=1;rounded=0;exitX=1;exitY=0.5;exitDx=0;exitDy=0;entryX=0;entryY=0.5;entryDx=0;entryDy=0;entryPerimeter=0;" edge="1" parent="WIyWlLk6GJQsqaUBKTNV-1" source="BolMKsSZyWMuAINEgr_R-33" target="BolMKsSZyWMuAINEgr_R-38">
          <mxGeometry width="50" height="50" relative="1" as="geometry">
            <mxPoint x="640" y="200" as="sourcePoint" />
            <mxPoint x="640" y="140" as="targetPoint" />
          </mxGeometry>
        </mxCell>
        <mxCell id="BolMKsSZyWMuAINEgr_R-38" value="Алгоритм поиска элемента полным перебором&lt;div&gt;Вход: массив src, искомый элемент x&lt;/div&gt;&lt;div&gt;Выход: индекс найденного элемента, количество сравнений&lt;/div&gt;" style="strokeWidth=1;html=1;shape=mxgraph.flowchart.annotation_1;align=left;pointerEvents=1;" vertex="1" parent="WIyWlLk6GJQsqaUBKTNV-1">
          <mxGeometry x="640" y="90" width="50" height="100" as="geometry" />
        </mxCell>
        <mxCell id="BolMKsSZyWMuAINEgr_R-39" value="" style="ellipse;whiteSpace=wrap;html=1;aspect=fixed;" vertex="1" parent="WIyWlLk6GJQsqaUBKTNV-1">
          <mxGeometry x="110" y="70" width="50" height="50" as="geometry" />
        </mxCell>
        <mxCell id="BolMKsSZyWMuAINEgr_R-40" value="" style="ellipse;whiteSpace=wrap;html=1;aspect=fixed;" vertex="1" parent="WIyWlLk6GJQsqaUBKTNV-1">
          <mxGeometry x="1080" y="1220" width="50" height="50" as="geometry" />
        </mxCell>
        <mxCell id="BolMKsSZyWMuAINEgr_R-41" value="" style="endArrow=none;html=1;rounded=0;entryX=0.5;entryY=1;entryDx=0;entryDy=0;exitX=0.5;exitY=0;exitDx=0;exitDy=0;" edge="1" parent="WIyWlLk6GJQsqaUBKTNV-1" source="BolMKsSZyWMuAINEgr_R-35" target="BolMKsSZyWMuAINEgr_R-33">
          <mxGeometry width="50" height="50" relative="1" as="geometry">
            <mxPoint x="330" y="240" as="sourcePoint" />
            <mxPoint x="380" y="190" as="targetPoint" />
          </mxGeometry>
        </mxCell>
        <mxCell id="BolMKsSZyWMuAINEgr_R-42" value="" style="endArrow=none;html=1;rounded=0;exitX=0.5;exitY=0;exitDx=0;exitDy=0;entryX=0.5;entryY=1;entryDx=0;entryDy=0;" edge="1" parent="WIyWlLk6GJQsqaUBKTNV-1" source="BolMKsSZyWMuAINEgr_R-80" target="BolMKsSZyWMuAINEgr_R-35">
          <mxGeometry width="50" height="50" relative="1" as="geometry">
            <mxPoint x="480.0000000000002" y="320" as="sourcePoint" />
            <mxPoint x="480" y="290" as="targetPoint" />
            <Array as="points" />
          </mxGeometry>
        </mxCell>
        <mxCell id="BolMKsSZyWMuAINEgr_R-43" value="" style="endArrow=none;html=1;rounded=0;exitX=0.5;exitY=0;exitDx=0;exitDy=0;entryX=0.5;entryY=1;entryDx=0;entryDy=0;" edge="1" parent="WIyWlLk6GJQsqaUBKTNV-1" source="BolMKsSZyWMuAINEgr_R-66" target="BolMKsSZyWMuAINEgr_R-65">
          <mxGeometry width="50" height="50" relative="1" as="geometry">
            <mxPoint x="480.0000000000002" y="540" as="sourcePoint" />
            <mxPoint x="480.0000000000002" y="510" as="targetPoint" />
          </mxGeometry>
        </mxCell>
        <mxCell id="BolMKsSZyWMuAINEgr_R-55" value="Конец" style="rounded=1;whiteSpace=wrap;html=1;fontSize=12;glass=0;strokeWidth=1;shadow=0;" vertex="1" parent="WIyWlLk6GJQsqaUBKTNV-1">
          <mxGeometry x="370" y="1120" width="220" height="80" as="geometry" />
        </mxCell>
        <mxCell id="BolMKsSZyWMuAINEgr_R-57" value="" style="endArrow=none;html=1;rounded=0;exitX=0.5;exitY=0;exitDx=0;exitDy=0;entryX=0.5;entryY=0;entryDx=0;entryDy=0;" edge="1" parent="WIyWlLk6GJQsqaUBKTNV-1" source="BolMKsSZyWMuAINEgr_R-78" target="BolMKsSZyWMuAINEgr_R-77">
          <mxGeometry width="50" height="50" relative="1" as="geometry">
            <mxPoint x="479.66" y="980" as="sourcePoint" />
            <mxPoint x="479.66" y="950" as="targetPoint" />
          </mxGeometry>
        </mxCell>
        <mxCell id="BolMKsSZyWMuAINEgr_R-58" value="" style="endArrow=none;html=1;rounded=0;exitX=0.5;exitY=0;exitDx=0;exitDy=0;entryX=0.5;entryY=1;entryDx=0;entryDy=0;" edge="1" parent="WIyWlLk6GJQsqaUBKTNV-1" source="BolMKsSZyWMuAINEgr_R-55" target="BolMKsSZyWMuAINEgr_R-78">
          <mxGeometry width="50" height="50" relative="1" as="geometry">
            <mxPoint x="479.79999999999995" y="1200" as="sourcePoint" />
            <mxPoint x="480" y="1170" as="targetPoint" />
          </mxGeometry>
        </mxCell>
        <mxCell id="BolMKsSZyWMuAINEgr_R-60" value="" style="endArrow=classic;html=1;rounded=0;exitX=0.5;exitY=1;exitDx=0;exitDy=0;entryX=0.5;entryY=0;entryDx=0;entryDy=0;" edge="1" parent="WIyWlLk6GJQsqaUBKTNV-1" source="BolMKsSZyWMuAINEgr_R-66" target="BolMKsSZyWMuAINEgr_R-67">
          <mxGeometry width="50" height="50" relative="1" as="geometry">
            <mxPoint x="479.73" y="620" as="sourcePoint" />
            <mxPoint x="479.73" y="650" as="targetPoint" />
          </mxGeometry>
        </mxCell>
        <mxCell id="BolMKsSZyWMuAINEgr_R-65" value="i = 0 .. n" style="shape=loopLimit;whiteSpace=wrap;html=1;" vertex="1" parent="WIyWlLk6GJQsqaUBKTNV-1">
          <mxGeometry x="370" y="430" width="220" height="80" as="geometry" />
        </mxCell>
        <mxCell id="BolMKsSZyWMuAINEgr_R-66" value="comparisons++" style="rounded=0;whiteSpace=wrap;html=1;" vertex="1" parent="WIyWlLk6GJQsqaUBKTNV-1">
          <mxGeometry x="370" y="540" width="220" height="80" as="geometry" />
        </mxCell>
        <mxCell id="BolMKsSZyWMuAINEgr_R-67" value="src[i] == x" style="rhombus;whiteSpace=wrap;html=1;" vertex="1" parent="WIyWlLk6GJQsqaUBKTNV-1">
          <mxGeometry x="370" y="650" width="220" height="80" as="geometry" />
        </mxCell>
        <mxCell id="BolMKsSZyWMuAINEgr_R-69" value="" style="endArrow=classic;html=1;rounded=0;exitX=1;exitY=0.5;exitDx=0;exitDy=0;entryX=0.5;entryY=0;entryDx=0;entryDy=0;" edge="1" parent="WIyWlLk6GJQsqaUBKTNV-1" source="BolMKsSZyWMuAINEgr_R-67" target="BolMKsSZyWMuAINEgr_R-72">
          <mxGeometry width="50" height="50" relative="1" as="geometry">
            <mxPoint x="600" y="720" as="sourcePoint" />
            <mxPoint x="720" y="690" as="targetPoint" />
            <Array as="points">
              <mxPoint x="700" y="690" />
            </Array>
          </mxGeometry>
        </mxCell>
        <mxCell id="BolMKsSZyWMuAINEgr_R-70" value="Да" style="text;html=1;align=center;verticalAlign=middle;resizable=0;points=[];autosize=1;strokeColor=none;fillColor=none;" vertex="1" parent="WIyWlLk6GJQsqaUBKTNV-1">
          <mxGeometry x="620" y="658" width="40" height="30" as="geometry" />
        </mxCell>
        <mxCell id="BolMKsSZyWMuAINEgr_R-72" value="Вернуть пару (i, comparisons)" style="shape=parallelogram;perimeter=parallelogramPerimeter;whiteSpace=wrap;html=1;fixedSize=1;" vertex="1" parent="WIyWlLk6GJQsqaUBKTNV-1">
          <mxGeometry x="590" y="730" width="220" height="80" as="geometry" />
        </mxCell>
        <mxCell id="BolMKsSZyWMuAINEgr_R-73" value="" style="endArrow=classic;html=1;rounded=0;exitX=0;exitY=0.5;exitDx=0;exitDy=0;entryX=0.5;entryY=1;entryDx=0;entryDy=0;" edge="1" parent="WIyWlLk6GJQsqaUBKTNV-1" source="BolMKsSZyWMuAINEgr_R-67" target="BolMKsSZyWMuAINEgr_R-77">
          <mxGeometry width="50" height="50" relative="1" as="geometry">
            <mxPoint x="340" y="780" as="sourcePoint" />
            <mxPoint x="480" y="870" as="targetPoint" />
            <Array as="points">
              <mxPoint x="260" y="690" />
              <mxPoint x="260" y="840" />
              <mxPoint x="480" y="840" />
            </Array>
          </mxGeometry>
        </mxCell>
        <mxCell id="BolMKsSZyWMuAINEgr_R-77" value="i++" style="shape=loopLimit;whiteSpace=wrap;html=1;direction=west;" vertex="1" parent="WIyWlLk6GJQsqaUBKTNV-1">
          <mxGeometry x="370" y="870" width="220" height="80" as="geometry" />
        </mxCell>
        <mxCell id="BolMKsSZyWMuAINEgr_R-78" value="Вернуть пару (-1, comparisons)" style="shape=parallelogram;perimeter=parallelogramPerimeter;whiteSpace=wrap;html=1;fixedSize=1;" vertex="1" parent="WIyWlLk6GJQsqaUBKTNV-1">
          <mxGeometry x="370" y="980" width="220" height="80" as="geometry" />
        </mxCell>
        <mxCell id="BolMKsSZyWMuAINEgr_R-79" value="" style="endArrow=classic;html=1;rounded=0;exitX=0.5;exitY=1;exitDx=0;exitDy=0;" edge="1" parent="WIyWlLk6GJQsqaUBKTNV-1" source="BolMKsSZyWMuAINEgr_R-72">
          <mxGeometry width="50" height="50" relative="1" as="geometry">
            <mxPoint x="680" y="920" as="sourcePoint" />
            <mxPoint x="480" y="1090" as="targetPoint" />
            <Array as="points">
              <mxPoint x="700" y="1000" />
              <mxPoint x="700" y="1090" />
            </Array>
          </mxGeometry>
        </mxCell>
        <mxCell id="BolMKsSZyWMuAINEgr_R-80" value="&lt;div&gt;&lt;span style=&quot;background-color: initial;&quot;&gt;n = длина массива src&lt;/span&gt;&lt;br&gt;&lt;/div&gt;" style="rounded=0;whiteSpace=wrap;html=1;" vertex="1" parent="WIyWlLk6GJQsqaUBKTNV-1">
          <mxGeometry x="370" y="320" width="220" height="80" as="geometry" />
        </mxCell>
        <mxCell id="BolMKsSZyWMuAINEgr_R-81" value="" style="endArrow=none;html=1;rounded=0;exitX=0.5;exitY=0;exitDx=0;exitDy=0;entryX=0.5;entryY=1;entryDx=0;entryDy=0;" edge="1" parent="WIyWlLk6GJQsqaUBKTNV-1" source="BolMKsSZyWMuAINEgr_R-65" target="BolMKsSZyWMuAINEgr_R-80">
          <mxGeometry width="50" height="50" relative="1" as="geometry">
            <mxPoint x="479.7" y="430" as="sourcePoint" />
            <mxPoint x="479.7" y="400" as="targetPoint" />
            <Array as="points" />
          </mxGeometry>
        </mxCell>
      </root>
    </mxGraphModel>
  </diagram>
</mxfile>
